<?xml version="1.0" encoding="utf-8"?>
<svg width="100px" height="100px" viewbox="0 0 100 100" version="1.1" xmlns:xlink="http://www.w3.org/1999/xlink" xmlns="http://www.w3.org/2000/svg">
  <defs>
    <linearGradient x1="0.5" y1="0.11705685" x2="0.5" y2="1" id="gradient_1">
      <stop offset="0" stop-color="#EEF1F6" />
      <stop offset="1" stop-color="#E4EBF1" />
    </linearGradient>
    <linearGradient x1="0.49999997" y1="0" x2="0.50000006" y2="1" id="gradient_2">
      <stop offset="0" stop-color="#EEF1F6" />
      <stop offset="1" stop-color="#E4EBF1" />
    </linearGradient>
  </defs>
  <g id="Group-5">
    <path d="M0 50C0 22.3858 22.3858 0 50 0C77.6142 0 100 22.3858 100 50C100 77.6142 77.6142 100 50 100C22.3858 100 0 77.6142 0 50Z" id="Ellipse-3" fill="#F8FAFD" fill-rule="evenodd" stroke="none" />
    <g id="Group" transform="translate(22 21)">
      <path d="M14.999 0L42.001 0Q42.3692 0 42.737 0.0180669Q43.1047 0.0361339 43.4712 0.0722243Q43.8376 0.108315 44.2018 0.162341Q44.566 0.216368 44.9272 0.288202Q45.2883 0.360035 45.6454 0.449501Q46.0026 0.538968 46.355 0.645852Q46.7073 0.752736 47.054 0.87678Q47.4007 1.00082 47.7409 1.14173Q48.081 1.28264 48.4139 1.44006Q48.7467 1.59749 49.0715 1.77106Q49.3962 1.94463 49.712 2.13393Q50.0278 2.32322 50.334 2.52779Q50.6401 2.73235 50.9359 2.95169Q51.2316 3.17103 51.5163 3.40462Q51.8009 3.6382 52.0737 3.88547Q52.3465 4.13274 52.6069 4.39311Q52.8672 4.65346 53.1145 4.92629Q53.3618 5.19911 53.5954 5.48373Q53.829 5.76836 54.0483 6.06411Q54.2676 6.35985 54.4722 6.666Q54.6768 6.97215 54.8661 7.28797Q55.0554 7.60379 55.2289 7.92852Q55.4025 8.25325 55.5599 8.5861Q55.7174 8.91895 55.8583 9.25913Q55.9992 9.59931 56.1232 9.94599Q56.2473 10.2927 56.3541 10.645Q56.461 10.9974 56.5505 11.3545Q56.64 11.7117 56.7118 12.0728Q56.7836 12.434 56.8377 12.7982Q56.8917 13.1624 56.9278 13.5288Q56.9639 13.8953 56.9819 14.263Q57 14.6308 57 14.999L57 31.001Q57 31.3692 56.9819 31.737Q56.9639 32.1047 56.9278 32.4712Q56.8917 32.8376 56.8377 33.2018Q56.7836 33.566 56.7118 33.9272Q56.64 34.2883 56.5505 34.6455Q56.461 35.0026 56.3541 35.355Q56.2473 35.7073 56.1232 36.054Q55.9992 36.4007 55.8583 36.7409Q55.7174 37.081 55.5599 37.4139Q55.4025 37.7467 55.2289 38.0715Q55.0554 38.3962 54.8661 38.712Q54.6768 39.0278 54.4722 39.334Q54.2676 39.6401 54.0483 39.9359Q53.829 40.2316 53.5954 40.5163Q53.3618 40.8009 53.1145 41.0737Q52.8672 41.3465 52.6069 41.6069Q52.3465 41.8673 52.0737 42.1145Q51.8009 42.3618 51.5163 42.5954Q51.2316 42.829 50.9359 43.0483Q50.6401 43.2676 50.334 43.4722Q50.0278 43.6768 49.712 43.8661Q49.3962 44.0554 49.0715 44.2289Q48.7467 44.4025 48.4139 44.5599Q48.081 44.7174 47.7409 44.8583Q47.4007 44.9992 47.054 45.1232Q46.7073 45.2473 46.355 45.3541Q46.0026 45.461 45.6454 45.5505Q45.2883 45.64 44.9271 45.7118Q44.566 45.7836 44.2018 45.8377Q43.8376 45.8917 43.4712 45.9278Q43.1047 45.9639 42.737 45.9819Q42.3692 46 42.001 46L14.999 46Q14.6308 46 14.263 45.9819Q13.8953 45.9639 13.5288 45.9278Q13.1624 45.8917 12.7982 45.8377Q12.434 45.7836 12.0728 45.7118Q11.7117 45.64 11.3545 45.5505Q10.9974 45.461 10.645 45.3541Q10.2927 45.2473 9.94599 45.1232Q9.59931 44.9992 9.25913 44.8583Q8.91895 44.7174 8.5861 44.5599Q8.25325 44.4025 7.92852 44.2289Q7.60379 44.0554 7.28797 43.8661Q6.97215 43.6768 6.666 43.4722Q6.35985 43.2676 6.06411 43.0483Q5.76836 42.829 5.48373 42.5954Q5.19911 42.3618 4.92629 42.1145Q4.65346 41.8673 4.39311 41.6069Q4.13274 41.3465 3.88547 41.0737Q3.6382 40.8009 3.40462 40.5163Q3.17103 40.2316 2.95169 39.9359Q2.73235 39.6401 2.52779 39.334Q2.32322 39.0278 2.13393 38.712Q1.94463 38.3962 1.77106 38.0715Q1.59749 37.7467 1.44006 37.4139Q1.28264 37.081 1.14173 36.7409Q1.00082 36.4007 0.87678 36.054Q0.752736 35.7073 0.645852 35.355Q0.538968 35.0026 0.449501 34.6455Q0.360035 34.2883 0.288202 33.9272Q0.216368 33.566 0.162341 33.2018Q0.108315 32.8376 0.0722243 32.4712Q0.0361339 32.1047 0.0180669 31.737Q0 31.3692 0 31.001L0 14.999Q0 14.6308 0.0180669 14.263Q0.0361339 13.8953 0.0722243 13.5288Q0.108315 13.1624 0.162341 12.7982Q0.216368 12.434 0.288202 12.0728Q0.360035 11.7117 0.449501 11.3545Q0.538968 10.9974 0.645852 10.645Q0.752736 10.2927 0.87678 9.94599Q1.00082 9.59931 1.14173 9.25913Q1.28264 8.91895 1.44006 8.5861Q1.59749 8.25325 1.77106 7.92852Q1.94463 7.60379 2.13393 7.28797Q2.32322 6.97215 2.52779 6.666Q2.73235 6.35985 2.95169 6.06411Q3.17103 5.76836 3.40462 5.48373Q3.6382 5.19911 3.88547 4.92629Q4.13274 4.65346 4.39311 4.39311Q4.65346 4.13274 4.92629 3.88547Q5.19911 3.6382 5.48373 3.40462Q5.76836 3.17103 6.06411 2.95169Q6.35985 2.73235 6.666 2.52779Q6.97215 2.32322 7.28797 2.13393Q7.60379 1.94463 7.92852 1.77106Q8.25325 1.59749 8.5861 1.44006Q8.91895 1.28264 9.25913 1.14173Q9.59931 1.00082 9.94599 0.87678Q10.2927 0.752736 10.645 0.645852Q10.9974 0.538968 11.3545 0.449501Q11.7117 0.360035 12.0728 0.288202Q12.434 0.216368 12.7982 0.162341Q13.1624 0.108315 13.5288 0.0722243Q13.8953 0.0361339 14.263 0.0180669Q14.6308 0 14.999 0L14.999 0Z" id="Rectangle" fill="url(#gradient_1)" fill-rule="evenodd" stroke="none" />
      <path d="M4.499 0L45.501 0Q45.6114 0 45.7218 0.00541924Q45.8321 0.0108385 45.942 0.0216639Q46.0519 0.0324893 46.1611 0.0486949Q46.2704 0.0649004 46.3787 0.086447Q46.487 0.107994 46.5942 0.134829Q46.7013 0.161665 46.807 0.193725Q46.9127 0.225786 47.0167 0.262993Q47.1206 0.300201 47.2227 0.342466Q47.3247 0.384731 47.4246 0.431952Q47.5244 0.479173 47.6218 0.531236Q47.7192 0.583299 47.8139 0.640079Q47.9087 0.696859 48.0005 0.758218Q48.0923 0.819578 48.181 0.885369Q48.2698 0.951161 48.3551 1.02123Q48.4405 1.09129 48.5223 1.16546Q48.6042 1.23963 48.6823 1.31773Q48.7604 1.39582 48.8345 1.47766Q48.9087 1.55949 48.9788 1.64486Q49.0488 1.73024 49.1146 1.81895Q49.1804 1.90766 49.2418 1.99949Q49.3031 2.09132 49.3599 2.18605Q49.4167 2.28078 49.4688 2.37819Q49.5208 2.47559 49.568 2.57543Q49.6153 2.67527 49.6575 2.77731Q49.6998 2.87934 49.737 2.98333Q49.7742 3.08732 49.8063 3.19301Q49.8383 3.2987 49.8652 3.40583Q49.892 3.51297 49.9135 3.62129Q49.9351 3.72961 49.9513 3.83886Q49.9675 3.94811 49.9783 4.05802Q49.9892 4.16793 49.9946 4.27824Q50 4.38856 50 4.499L50 4.501Q50 4.61144 49.9946 4.72176Q49.9892 4.83207 49.9783 4.94198Q49.9675 5.05189 49.9513 5.16114Q49.9351 5.27039 49.9136 5.37871Q49.892 5.48703 49.8652 5.59417Q49.8383 5.7013 49.8063 5.80699Q49.7742 5.91268 49.737 6.01667Q49.6998 6.12065 49.6575 6.22269Q49.6153 6.32473 49.568 6.42457Q49.5208 6.52441 49.4688 6.62181Q49.4167 6.71922 49.3599 6.81395Q49.3031 6.90868 49.2418 7.00051Q49.1804 7.09234 49.1146 7.18105Q49.0488 7.26976 48.9788 7.35513Q48.9087 7.44051 48.8345 7.52234Q48.7604 7.60418 48.6823 7.68227Q48.6042 7.76037 48.5223 7.83454Q48.4405 7.90871 48.3551 7.97877Q48.2698 8.04884 48.181 8.11463Q48.0923 8.18042 48.0005 8.24178Q47.9087 8.30314 47.8139 8.35992Q47.7192 8.4167 47.6218 8.46876Q47.5244 8.52083 47.4246 8.56805Q47.3247 8.61527 47.2227 8.65753Q47.1206 8.6998 47.0167 8.73701Q46.9127 8.77421 46.807 8.80627Q46.7013 8.83833 46.5942 8.86517Q46.487 8.892 46.3787 8.91355Q46.2704 8.9351 46.1611 8.9513Q46.0519 8.96751 45.942 8.97834Q45.8321 8.98916 45.7218 8.99458Q45.6114 9 45.501 9L4.499 9Q4.38856 9 4.27824 8.99458Q4.16793 8.98916 4.05802 8.97834Q3.94811 8.96751 3.83886 8.9513Q3.72961 8.9351 3.62129 8.91355Q3.51297 8.892 3.40583 8.86517Q3.2987 8.83833 3.19301 8.80627Q3.08732 8.77421 2.98333 8.737Q2.87934 8.6998 2.77731 8.65753Q2.67527 8.61527 2.57543 8.56805Q2.47559 8.52083 2.37819 8.46876Q2.28078 8.4167 2.18605 8.35992Q2.09132 8.30314 1.99949 8.24178Q1.90766 8.18042 1.81895 8.11463Q1.73024 8.04884 1.64486 7.97877Q1.55949 7.90871 1.47766 7.83454Q1.39582 7.76037 1.31773 7.68227Q1.23963 7.60418 1.16546 7.52234Q1.09129 7.44051 1.02123 7.35513Q0.951161 7.26976 0.885369 7.18105Q0.819578 7.09234 0.758218 7.00051Q0.696859 6.90868 0.640079 6.81395Q0.583299 6.71922 0.531236 6.62181Q0.479173 6.52441 0.431952 6.42457Q0.384731 6.32473 0.342466 6.22269Q0.300201 6.12065 0.262993 6.01667Q0.225786 5.91268 0.193725 5.80699Q0.161665 5.7013 0.134829 5.59417Q0.107994 5.48703 0.086447 5.37871Q0.0649004 5.27039 0.0486949 5.16114Q0.0324893 5.05189 0.0216639 4.94198Q0.0108385 4.83207 0.00541924 4.72176Q0 4.61144 0 4.501L0 4.499Q0 4.38856 0.00541924 4.27824Q0.0108385 4.16793 0.0216639 4.05802Q0.0324893 3.94811 0.0486949 3.83886Q0.0649004 3.72961 0.086447 3.62129Q0.107994 3.51297 0.134829 3.40583Q0.161665 3.2987 0.193725 3.19301Q0.225786 3.08732 0.262993 2.98333Q0.300201 2.87934 0.342466 2.77731Q0.384731 2.67527 0.431952 2.57543Q0.479173 2.47559 0.531236 2.37819Q0.583299 2.28078 0.640079 2.18605Q0.696859 2.09132 0.758218 1.99949Q0.819578 1.90766 0.885369 1.81895Q0.951161 1.73024 1.02123 1.64486Q1.09129 1.55949 1.16546 1.47766Q1.23963 1.39582 1.31773 1.31773Q1.39582 1.23963 1.47766 1.16546Q1.55949 1.09129 1.64486 1.02123Q1.73024 0.951161 1.81895 0.885369Q1.90766 0.819578 1.99949 0.758218Q2.09132 0.696859 2.18605 0.640079Q2.28078 0.583299 2.37819 0.531236Q2.47559 0.479173 2.57543 0.431952Q2.67527 0.384731 2.77731 0.342466Q2.87934 0.300201 2.98333 0.262993Q3.08732 0.225786 3.19301 0.193725Q3.2987 0.161665 3.40583 0.134829Q3.51297 0.107994 3.62129 0.086447Q3.72961 0.0649004 3.83886 0.0486949Q3.94811 0.0324893 4.05802 0.0216639Q4.16793 0.0108385 4.27824 0.00541924Q4.38856 0 4.499 0Z" transform="translate(3.5 50)" id="Rectangle" fill="url(#gradient_2)" fill-rule="evenodd" stroke="none" />
    </g>
  </g>
</svg>